<svg xmlns="http://www.w3.org/2000/svg" width="49" height="8" viewBox="0 0 49 8" fill="none">
<path d="M49 0.229711V7.69628H46.5125V6.33778C46.3021 6.84889 45.983 7.23851 45.5537 7.50518C45.1244 7.77036 44.5935 7.90369 43.964 7.90369C43.4012 7.90369 42.9109 7.76443 42.4918 7.48443C42.0726 7.20444 41.7491 6.82074 41.5214 6.33334C41.2951 5.84594 41.1805 5.29483 41.1805 4.67854C41.1733 4.043 41.2937 3.47263 41.5417 2.96745C41.7883 2.46228 42.1378 2.06821 42.5875 1.78525C43.0371 1.50229 43.5506 1.36007 44.1264 1.36007C45.3115 1.36007 46.1063 1.88599 46.5125 2.93634V0.229711H49ZM46.1411 5.58668C46.395 5.33483 46.5212 5.00743 46.5212 4.60743C46.5212 4.22077 46.3979 3.90522 46.1513 3.66374C45.9047 3.42226 45.5668 3.30078 45.1418 3.30078C44.7226 3.30078 44.3875 3.42375 44.1366 3.66967C43.8857 3.91559 43.7609 4.23411 43.7609 4.62817C43.7609 5.02224 43.8857 5.34372 44.1366 5.59261C44.3875 5.84149 44.7182 5.96594 45.1316 5.96594C45.5508 5.96445 45.8873 5.83853 46.1411 5.58668Z" fill="#72767D"/>
<path d="M40.7354 1.74374V3.98371C40.4772 3.81038 40.1436 3.72445 39.7302 3.72445C39.1892 3.72445 38.7714 3.89186 38.4813 4.22667C38.1898 4.56148 38.0448 5.08295 38.0448 5.78813V7.69625H35.5572V1.62966H37.994V3.55853C38.1289 2.85335 38.3479 2.33336 38.6496 1.99707C38.9498 1.66225 39.3386 1.49485 39.8114 1.49485C40.1697 1.49485 40.4772 1.57781 40.7354 1.74374Z" fill="#72767D"/>
<path d="M28.6891 7.46813C28.1031 7.17777 27.6564 6.78073 27.3489 6.27555C27.0414 5.77038 26.8862 5.20742 26.8862 4.58521C26.8862 3.96299 27.0399 3.40744 27.3489 2.92004C27.6578 2.43264 28.1017 2.05042 28.6848 1.77339C29.2664 1.49635 29.9612 1.35858 30.7662 1.35858C31.5712 1.35858 32.266 1.49635 32.8476 1.77339C33.4293 2.05042 33.8731 2.42968 34.1777 2.91411C34.4823 3.39855 34.6346 3.9541 34.6346 4.58372C34.6346 5.20594 34.4823 5.76889 34.1777 6.27407C33.8731 6.77925 33.4278 7.17628 32.8418 7.46665C32.2558 7.75702 31.564 7.9022 30.7648 7.9022C29.9655 7.9022 29.2737 7.7585 28.6891 7.46813ZM31.7743 5.62815C32.0209 5.37631 32.1456 5.04298 32.1456 4.62817C32.1456 4.21336 32.0223 3.88299 31.7743 3.63855C31.5277 3.39263 31.1912 3.26967 30.7648 3.26967C30.3311 3.26967 29.9916 3.39263 29.7436 3.63855C29.497 3.88447 29.3737 4.21336 29.3737 4.62817C29.3737 5.04298 29.497 5.37631 29.7436 5.62815C29.9902 5.88 30.3311 6.00741 30.7648 6.00741C31.1912 6.00593 31.5277 5.88 31.7743 5.62815Z" fill="#72767D"/>
<path d="M21.4745 7.46807C20.8928 7.1777 20.4534 6.78363 20.1604 6.28586C19.8674 5.78809 19.7194 5.2281 19.7194 4.60588C19.7194 3.98367 19.8717 3.42664 20.1763 2.93627C20.4809 2.44591 20.9277 2.06073 21.5165 1.78073C22.1054 1.50074 22.8089 1.36148 23.6284 1.36148C24.6438 1.36148 25.4865 1.57925 26.1566 2.0148V3.91256C25.9202 3.74664 25.6446 3.61182 25.3298 3.50812C25.0151 3.40442 24.6786 3.35257 24.3189 3.35257C23.6894 3.35257 23.1976 3.4696 22.8423 3.70515C22.4869 3.94071 22.3085 4.24737 22.3085 4.62811C22.3085 5.00144 22.4811 5.30662 22.8263 5.54661C23.1715 5.78513 23.6719 5.90513 24.329 5.90513C24.667 5.90513 25.0006 5.85476 25.3298 5.7555C25.6576 5.65476 25.9405 5.5318 26.1769 5.38662V7.22215C25.4328 7.67844 24.5698 7.90658 23.5878 7.90658C22.761 7.90362 22.0561 7.75844 21.4745 7.46807Z" fill="#72767D"/>
<path d="M14.2858 7.68591C13.7376 7.54072 13.2429 7.33036 12.8035 7.05332V5.33186C13.1356 5.59408 13.5809 5.81038 14.1393 5.98074C14.6978 6.14963 15.2373 6.23407 15.7595 6.23407C16.0032 6.23407 16.1874 6.20148 16.3121 6.1363C16.4369 6.07111 16.4993 5.9926 16.4993 5.90223C16.4993 5.79852 16.4659 5.7126 16.3977 5.64297C16.3296 5.57334 16.1976 5.51556 16.0017 5.46668L14.7833 5.18668C14.0857 5.02076 13.5911 4.79113 13.2966 4.49632C13.0022 4.20299 12.8557 3.81781 12.8557 3.34078C12.8557 2.9393 12.9833 2.59116 13.2415 2.29338C13.4982 1.99561 13.8638 1.76598 14.3381 1.6045C14.8124 1.44154 15.3664 1.36006 16.0032 1.36006C16.5718 1.36006 17.0925 1.42228 17.5668 1.54672C18.0411 1.67117 18.4327 1.82968 18.7446 2.02376V3.65188C18.4255 3.45781 18.06 3.30522 17.6422 3.18967C17.2259 3.07559 16.7981 3.0193 16.3571 3.0193C15.7204 3.0193 15.4027 3.13041 15.4027 3.35115C15.4027 3.45485 15.452 3.53188 15.5506 3.58374C15.6493 3.63559 15.8306 3.68892 16.0931 3.74522L17.1085 3.93188C17.7713 4.04892 18.2659 4.25484 18.5908 4.54817C18.9157 4.8415 19.0782 5.27557 19.0782 5.85038C19.0782 6.48 18.8099 6.97925 18.2717 7.34962C17.7336 7.71998 16.9707 7.90516 15.9814 7.90516C15.3998 7.90368 14.8341 7.83109 14.2858 7.68591Z" fill="#72767D"/>
<path d="M10.4537 2.27553C11.1386 2.27553 11.6938 1.76613 11.6938 1.13776C11.6938 0.509394 11.1386 0 10.4537 0C9.76873 0 9.2135 0.509394 9.2135 1.13776C9.2135 1.76613 9.76873 2.27553 10.4537 2.27553Z" fill="#72767D"/>
<path d="M9.21239 3.05925C9.97243 3.39407 10.9152 3.40888 11.6927 3.05925V7.72883H9.21239V3.05925Z" fill="#72767D"/>
<path d="M0 0.43708H3.95978C4.9142 0.43708 5.72066 0.589671 6.38207 0.893371C7.04204 1.19707 7.53665 1.62077 7.86446 2.16299C8.19226 2.7052 8.35761 3.32593 8.35761 4.02519C8.35761 4.70962 8.18646 5.33036 7.84415 5.8859C7.50184 6.44293 6.98112 6.88293 6.28054 7.20737C5.57996 7.53181 4.71258 7.69477 3.67549 7.69477H0V0.43708ZM3.63488 5.85035C4.27744 5.85035 4.77205 5.68591 5.11726 5.3585C5.46247 5.02962 5.63508 4.58222 5.63508 4.01482C5.63508 3.4889 5.48133 3.06964 5.17383 2.75557C4.86633 2.4415 4.40073 2.28298 3.77848 2.28298H2.53977V5.85035H3.63488Z" fill="#72767D"/>
</svg>